<mxfile host="app.diagrams.net" modified="2023-11-11T21:15:42.431Z" agent="Mozilla/5.0 (Macintosh; Intel Mac OS X 10_15_7) AppleWebKit/605.1.15 (KHTML, like Gecko) Version/16.5.2 Safari/605.1.15" version="22.1.0" etag="iOXXQwK6D3SBk1IT2KbV" type="github">
  <diagram name="Page-1" id="WTxBrP4DtgmvKfanNh2n">
    <mxGraphModel>
      <root>
        <mxCell id="0" />
        <mxCell id="1" parent="0" />
      </root>
    </mxGraphModel>
  </diagram>
</mxfile>
